HIERARCHY
ROOT Hips
{
    OFFSET   0.000000   0.000000   0.000000
    CHANNELS 6 Xposition Yposition Zposition Zrotation Xrotation Yrotation
    JOINT Chest
    {
        OFFSET   0.000000   8.007230   0.000000
        CHANNELS 3 Zrotation Xrotation Yrotation
        JOINT Chest2
        {
            OFFSET   0.000000  22.077100   0.000000
            CHANNELS 3 Zrotation Xrotation Yrotation
            JOINT Neck
            {
                OFFSET   0.000000  23.254700   0.000000
                CHANNELS 3 Zrotation Xrotation Yrotation
                JOINT Head
                {
                    OFFSET   0.000010  14.370000   1.956610
                    CHANNELS 3 Zrotation Xrotation Yrotation
                    End Site
                    {
                        OFFSET   0.000000  19.566000   0.000000
                    }
                }
            }
            JOINT LeftCollar
            {
                OFFSET   3.911900  19.017000  -0.467063
                CHANNELS 3 Zrotation Xrotation Yrotation
                JOINT LeftShoulder
                {
                    OFFSET  10.383700   0.000000   0.000000
                    CHANNELS 3 Zrotation Xrotation Yrotation
                    JOINT LeftElbow
                    {
                        OFFSET  26.662100   0.001671   0.000522
                        CHANNELS 3 Zrotation Xrotation Yrotation
                        JOINT LeftWrist
                        {
                            OFFSET  28.869000   0.000037  -0.000114
                            CHANNELS 3 Zrotation Xrotation Yrotation
                            JOINT LeftFinger0
                            {
                                OFFSET   2.044650  -2.323450   3.252850
                                CHANNELS 3 Zrotation Xrotation Yrotation
                                JOINT LeftFinger01
                                {
                                    OFFSET   3.088140   0.000000   0.000000
                                    CHANNELS 3 Zrotation Xrotation Yrotation
                                    JOINT LeftFinger02
                                    {
                                        OFFSET   2.639460   0.000000   0.000000
                                        CHANNELS 3 Zrotation Xrotation Yrotation
                                        End Site
                                        {
                                            OFFSET   2.582190   0.000000   0.000000
                                        }
                                    }
                                }
                            }
                            JOINT LeftFinger1
                            {
                                OFFSET   8.364480   0.000000   3.252850
                                CHANNELS 3 Zrotation Xrotation Yrotation
                                JOINT LeftFinger11
                                {
                                    OFFSET   4.646930   0.000000   0.000000
                                    CHANNELS 3 Zrotation Xrotation Yrotation
                                    JOINT LeftFinger12
                                    {
                                        OFFSET   2.323470   0.000000   0.000000
                                        CHANNELS 3 Zrotation Xrotation Yrotation
                                        End Site
                                        {
                                            OFFSET   2.273050   0.000000   0.000000
                                        }
                                    }
                                }
                            }
                            JOINT LeftFinger2
                            {
                                OFFSET   8.364490   0.000016   1.078090
                                CHANNELS 3 Zrotation Xrotation Yrotation
                                JOINT LeftFinger21
                                {
                                    OFFSET   5.111620   0.000000   0.000000
                                    CHANNELS 3 Zrotation Xrotation Yrotation
                                    JOINT LeftFinger22
                                    {
                                        OFFSET   2.788150   0.000013   0.000000
                                        CHANNELS 3 Zrotation Xrotation Yrotation
                                        End Site
                                        {
                                            OFFSET   2.727660   0.000000   0.000000
                                        }
                                    }
                                }
                            }
                            JOINT LeftFinger3
                            {
                                OFFSET   7.899780   0.000016  -1.078090
                                CHANNELS 3 Zrotation Xrotation Yrotation
                                JOINT LeftFinger31
                                {
                                    OFFSET   4.646930   0.000000   0.000000
                                    CHANNELS 3 Zrotation Xrotation Yrotation
                                    JOINT LeftFinger32
                                    {
                                        OFFSET   2.323470   0.000000   0.000000
                                        CHANNELS 3 Zrotation Xrotation Yrotation
                                        End Site
                                        {
                                            OFFSET   2.273050   0.000000   0.000000
                                        }
                                    }
                                }
                            }
                            JOINT LeftFinger4
                            {
                                OFFSET   7.435080   0.000000  -3.252850
                                CHANNELS 3 Zrotation Xrotation Yrotation
                                JOINT LeftFinger41
                                {
                                    OFFSET   3.717550   0.000000   0.000000
                                    CHANNELS 3 Zrotation Xrotation Yrotation
                                    JOINT LeftFinger42
                                    {
                                        OFFSET   1.858760   0.000000   0.000000
                                        CHANNELS 3 Zrotation Xrotation Yrotation
                                        End Site
                                        {
                                            OFFSET   1.818440   0.000000   0.000000
                                        }
                                    }
                                }
                            }
                        }
                    }
                }
            }
            JOINT RightCollar
            {
                OFFSET  -3.911900  19.017000  -0.467064
                CHANNELS 3 Zrotation Xrotation Yrotation
                JOINT RightShoulder
                {
                    OFFSET -10.383700   0.000000   0.000000
                    CHANNELS 3 Zrotation Xrotation Yrotation
                    JOINT RightElbow
                    {
                        OFFSET -26.662100   0.001633   0.000260
                        CHANNELS 3 Zrotation Xrotation Yrotation
                        JOINT RightWrist
                        {
                            OFFSET -28.869000  -0.000045  -0.000080
                            CHANNELS 3 Zrotation Xrotation Yrotation
                            JOINT RightFinger0
                            {
                                OFFSET  -2.044660  -2.323490   3.252850
                                CHANNELS 3 Zrotation Xrotation Yrotation
                                JOINT RightFinger01
                                {
                                    OFFSET  -3.088140   0.000000   0.000000
                                    CHANNELS 3 Zrotation Xrotation Yrotation
                                    JOINT RightFinger02
                                    {
                                        OFFSET  -2.639450   0.000000   0.000000
                                        CHANNELS 3 Zrotation Xrotation Yrotation
                                        End Site
                                        {
                                            OFFSET  -2.582190   0.000000   0.000000
                                        }
                                    }
                                }
                            }
                            JOINT RightFinger1
                            {
                                OFFSET  -8.364480   0.000000   3.252850
                                CHANNELS 3 Zrotation Xrotation Yrotation
                                JOINT RightFinger11
                                {
                                    OFFSET  -4.646920   0.000000   0.000000
                                    CHANNELS 3 Zrotation Xrotation Yrotation
                                    JOINT RightFinger12
                                    {
                                        OFFSET  -2.323470   0.000000   0.000000
                                        CHANNELS 3 Zrotation Xrotation Yrotation
                                        End Site
                                        {
                                            OFFSET  -2.273050   0.000000   0.000000
                                        }
                                    }
                                }
                            }
                            JOINT RightFinger2
                            {
                                OFFSET  -8.364480   0.000000   1.078090
                                CHANNELS 3 Zrotation Xrotation Yrotation
                                JOINT RightFinger21
                                {
                                    OFFSET  -5.111610   0.000000   0.000000
                                    CHANNELS 3 Zrotation Xrotation Yrotation
                                    JOINT RightFinger22
                                    {
                                        OFFSET  -2.788160   0.000000   0.000000
                                        CHANNELS 3 Zrotation Xrotation Yrotation
                                        End Site
                                        {
                                            OFFSET  -2.727660   0.000000   0.000000
                                        }
                                    }
                                }
                            }
                            JOINT RightFinger3
                            {
                                OFFSET  -7.899780   0.000000  -1.078090
                                CHANNELS 3 Zrotation Xrotation Yrotation
                                JOINT RightFinger31
                                {
                                    OFFSET  -4.646930   0.000000   0.000000
                                    CHANNELS 3 Zrotation Xrotation Yrotation
                                    JOINT RightFinger32
                                    {
                                        OFFSET  -2.323470   0.000000   0.000000
                                        CHANNELS 3 Zrotation Xrotation Yrotation
                                        End Site
                                        {
                                            OFFSET  -2.273050   0.000000   0.000000
                                        }
                                    }
                                }
                            }
                            JOINT RightFinger4
                            {
                                OFFSET  -7.435090   0.000000  -3.252850
                                CHANNELS 3 Zrotation Xrotation Yrotation
                                JOINT RightFinger41
                                {
                                    OFFSET  -3.717550   0.000000   0.000000
                                    CHANNELS 3 Zrotation Xrotation Yrotation
                                    JOINT RightFinger42
                                    {
                                        OFFSET  -1.858760   0.000000   0.000000
                                        CHANNELS 3 Zrotation Xrotation Yrotation
                                        End Site
                                        {
                                            OFFSET  -1.818440   0.000000   0.000000
                                        }
                                    }
                                }
                            }
                        }
                    }
                }
            }
        }
    }
    JOINT LeftHip
    {
        OFFSET   9.782990   0.000000   0.000000
        CHANNELS 3 Zrotation Xrotation Yrotation
        JOINT LeftKnee
        {
            OFFSET  -0.000063 -41.789100   0.001657
            CHANNELS 3 Zrotation Xrotation Yrotation
            JOINT LeftAnkle
            {
                OFFSET   0.000078 -41.133200  -0.000113
                CHANNELS 3 Zrotation Xrotation Yrotation
                JOINT LeftToe
                {
                    OFFSET   0.000000  -6.358970  14.674500
                    CHANNELS 3 Zrotation Xrotation Yrotation
                    End Site
                    {
                        OFFSET   0.000000   0.000000   3.913200
                    }
                }
            }
        }
    }
    JOINT RightHip
    {
        OFFSET  -9.782990   0.000000   0.000000
        CHANNELS 3 Zrotation Xrotation Yrotation
        JOINT RightKnee
        {
            OFFSET   0.000053 -41.789200   0.000277
            CHANNELS 3 Zrotation Xrotation Yrotation
            JOINT RightAnkle
            {
                OFFSET   0.000030 -41.133200  -0.000150
                CHANNELS 3 Zrotation Xrotation Yrotation
                JOINT RightToe
                {
                    OFFSET   0.000000  -6.358960  14.674500
                    CHANNELS 3 Zrotation Xrotation Yrotation
                    End Site
                    {
                        OFFSET   0.000000   0.000000   3.913200
                    }
                }
            }
        }
    }
}
MOTION
Frames: 4
Frame Time:   0.016667
 -0.941746  89.523500  -0.060194  -3.298290 -10.545000  -3.156050   1.384140   5.123850  -2.190480   2.982590  10.189100  -4.532200   2.328810   2.669220  -0.108519   3.849320   5.385860  -0.001610  -1.815820   0.733792   3.271150 -78.564500  19.874900  -2.409000  -2.204150  -8.205010 -13.685000   9.229630  -5.234380  -1.240700  33.328600  20.724900 -56.814900 -32.505600   0.007481   0.004801 -11.252800   0.003747  -0.000895 -23.934900   4.996270 -11.088500 -19.980600   0.002673  -0.002377 -13.986400   0.001987  -0.005752 -27.772700   0.452495  -0.859137 -30.648100   0.004046  -0.003441 -20.411700   0.003366   0.003753 -27.140000   0.442982  -0.864080 -27.588400   0.007441  -0.008389 -18.373900   0.005837   0.001825 -25.890100  -0.645403   1.329500 -38.846400   0.002897  -0.011101 -25.871700   0.001567   0.003982   3.819640   0.745023   7.418980  61.657000 -18.802500  21.310800 -24.632000 -47.310800 102.893000  16.956200   7.250260  12.957100 -25.527000  59.992400  64.316900  81.488100   0.002225  -0.014027  47.611100   0.002749  -0.003379   6.467370   3.287580  26.174800   5.907440   0.062583   0.015999   4.135200   0.044339   0.012181  89.000000  -0.002866   0.002519  95.300500  -0.014457  -0.012548  71.475400  -0.008990   0.008334  88.996100  -5.000590  -0.088109  91.698400  -0.009650  -0.005680  68.773800  -0.011440   0.001252  88.985400  -9.996430  -0.172235 110.000000  -0.003219  -0.006110  80.000000  -0.004159   0.003454   2.582910  13.749300   3.298190   0.798680   0.112965   4.283390  -1.049020  -3.912310   2.077480  -0.000000   0.000000   0.000000   4.150350  12.977200  -2.114490  -0.364044   1.428450  -3.400810  -1.178910  -4.394790   0.284810  -0.000000   0.000000   0.000000
 -0.941210  89.517100  -0.032595  -3.303730 -10.539400  -3.179150   1.389340   5.107570  -2.210000   2.994060  10.155800  -4.571360   2.309670   2.722560  -0.109874   3.821400   5.493700  -0.242124  -1.835430   0.741563   3.286120 -78.600900  19.848500  -2.377640  -2.206660  -8.195500 -13.652000   9.231070  -5.212130  -1.240130  33.334500  20.731700 -56.813900 -32.498500   0.007560   0.004893 -11.249300   0.003834  -0.000898 -23.926700   4.996200 -11.092600 -19.974300   0.002691  -0.002971 -13.982000   0.002083  -0.005762 -27.767300   0.456696  -0.867272 -30.617600   0.004123  -0.003505 -20.391400   0.003428   0.003755 -27.135700   0.447103  -0.872256 -27.570400   0.007387  -0.008528 -18.361900   0.005844   0.001829 -25.875700  -0.643693   1.326710 -38.824600   0.002855  -0.011245 -25.857200   0.001605   0.003905   3.814410   0.772080   7.454830  61.919400 -19.195300  21.376800 -24.255000 -47.584300 103.275000  19.821200   6.021290  16.273000 -25.290600  59.817500  63.637400  81.423200   0.002254  -0.014629  47.567800   0.002661  -0.003372   5.271540   2.906110  27.855000   4.895460   0.059150   0.018445   3.426820   0.041916   0.012166  89.000000  -0.002966   0.002667  95.001600  -0.018275  -0.012733  71.251200  -0.013312   0.008047  88.986700  -5.000480  -0.088390  91.493000  -0.009522  -0.009225  68.619800  -0.011204   0.001229  88.985400  -9.996370  -0.172329 110.000000  -0.003248  -0.006050  80.000000  -0.004142   0.003483   2.575060  13.780300   3.300930   0.798250   0.056948   4.291450  -1.039800  -3.897980   2.092970  -0.000000   0.000000   0.000000   4.146290  12.985900  -2.103820  -0.364413   1.428160  -3.397020  -1.172900  -4.403760   0.292252  -0.000000   0.000000  -0.000000
 -0.941046  89.509400  -0.006990  -3.311420 -10.532200  -3.213510   1.394770   5.090220  -2.226530   3.005650  10.120500  -4.604480   2.297390   2.782010  -0.112374   3.799210   5.613820  -0.436277  -1.854000   0.748696   3.304620 -78.633600  19.827400  -2.347100  -2.207340  -8.187260 -13.616000   9.232830  -5.184180  -1.240010  33.343200  20.742200 -56.811500 -32.492000   0.007640   0.004975 -11.246100   0.003923  -0.000901 -23.913500   4.996060 -11.101600 -19.963500   0.002709  -0.003565 -13.974500   0.002177  -0.005772 -27.760600   0.468100  -0.889221 -30.581600   0.004200  -0.003572 -20.367300   0.003491   0.003757 -27.130300   0.458288  -0.894317 -27.548300   0.007334  -0.008668 -18.347200   0.005852   0.001833 -25.857800  -0.638409   1.316970 -38.797800   0.002815  -0.011389 -25.839300   0.001645   0.003826   3.808010   0.791782   7.495930  62.109100 -19.507500  21.444000 -23.910200 -47.848100 103.674000  21.612900   4.189310  19.714400 -25.447400  59.831700  63.264500  81.299200   0.002285  -0.015231  47.485200   0.002572  -0.003365   3.934910   2.217120  28.761300   3.661610   0.049485   0.018952   2.563120   0.035068   0.012066  89.000000  -0.003056   0.002805  94.410800  -0.019360  -0.012918  70.808100  -0.016098   0.007568  88.977200  -4.999930  -0.088542  91.076400  -0.009152  -0.012590  68.307300  -0.010968   0.001213  88.985400  -9.996300  -0.172420 110.000000  -0.003279  -0.005988  80.000000  -0.004132   0.003509   2.566950  13.821900   3.307080   0.796561   0.000494   4.301940  -1.028920  -3.883640   2.115080  -0.000000   0.000000  -0.000000   4.142530  12.990500  -2.093240  -0.366405   1.428130  -3.389270  -1.166010  -4.412440   0.309518  -0.000000   0.000000   0.000000
 -0.940798  89.500300   0.014960  -3.321630 -10.522000  -3.262530   1.400810   5.070840  -2.235350   3.017700  10.081200  -4.622160   2.296840   2.846880  -0.114792   3.794070   5.745090  -0.597525  -1.871550   0.756387   3.324310 -78.660700  19.812600  -2.319760  -2.208610  -8.180360 -13.577300   9.234230  -5.132550  -1.245090  33.348300  20.752900 -56.800900 -32.483500   0.007718   0.004995 -11.241700   0.004010  -0.000905 -23.897800   4.995950 -11.113400 -19.950800   0.002725  -0.004152 -13.965600   0.002268  -0.005789 -27.752300   0.492709  -0.936344 -30.537600   0.004276  -0.003645 -20.338000   0.003554   0.003762 -27.124800   0.482423  -0.941683 -27.526900   0.007288  -0.008805 -18.332900   0.005860   0.001839 -25.843500  -0.628784   1.297930 -38.776000   0.002775  -0.011529 -25.824800   0.001684   0.003742   3.803190   0.800734   7.535140  62.141200 -19.639800  21.479800 -23.649400 -48.093300 104.024000  22.375300   1.681820  23.003500 -26.202000  60.591400  63.349700  81.142000   0.002310  -0.015086  47.380500   0.002486  -0.003356   2.409410   1.407970  29.386400   2.161750   0.031203   0.013567   1.518870   0.022039   0.008516  89.000000  -0.003143   0.002922  93.686400  -0.017963  -0.014112  70.264800  -0.016796   0.007081  89.079800  -4.997710  -0.082122  90.552600  -0.008528  -0.014780  67.914400  -0.011937   0.001210  88.985400  -9.996240  -0.172509 110.000000  -0.003326  -0.005919  80.000000  -0.004136   0.003524   2.562030  13.834100   3.316170   0.795073  -0.000018   4.314240  -1.020210  -3.888750   2.144750  -0.000000   0.000000  -0.000000   4.140010  12.987600  -2.084990  -0.373884   1.430640  -3.372900  -1.157640  -4.420540   0.332898  -0.000000   0.000000   0.000000
